<svg width="75" height="75" viewBox="0 0 75 75" fill="none" xmlns="http://www.w3.org/2000/svg">
<path d="M31.875 56.25C32.9105 56.25 33.75 55.4105 33.75 54.375C33.75 53.3395 32.9105 52.5 31.875 52.5C30.8395 52.5 30 53.3395 30 54.375C30 55.4105 30.8395 56.25 31.875 56.25Z" stroke="#888888" stroke-width="2" stroke-linecap="round" stroke-linejoin="round"/>
<path d="M52.5 56.25C53.5355 56.25 54.375 55.4105 54.375 54.375C54.375 53.3395 53.5355 52.5 52.5 52.5C51.4645 52.5 50.625 53.3395 50.625 54.375C50.625 55.4105 51.4645 56.25 52.5 56.25Z" stroke="#888888" stroke-width="2" stroke-linecap="round" stroke-linejoin="round"/>
<path d="M16.875 16.875H24.375L29.4 41.9812C29.5715 42.8445 30.0411 43.6199 30.7266 44.1718C31.4122 44.7237 32.2701 45.0169 33.15 45H51.375C52.2549 45.0169 53.1128 44.7237 53.7984 44.1718C54.4839 43.6199 54.9535 42.8445 55.125 41.9812L58.125 26.25H26.25" stroke="#888888" stroke-width="2" stroke-linecap="round" stroke-linejoin="round"/>
</svg>
